<?xml version="1.0" encoding="UTF-8" standalone="no"?>
<!DOCTYPE svg PUBLIC "-//W3C//DTD SVG 1.1//EN" "http://www.w3.org/Graphics/SVG/1.1/DTD/svg11.dtd">
<svg width="100%" height="100%" viewBox="0 0 591 119" version="1.1" xmlns="http://www.w3.org/2000/svg" xmlns:xlink="http://www.w3.org/1999/xlink" xml:space="preserve" xmlns:serif="http://www.serif.com/" style="fill-rule:evenodd;clip-rule:evenodd;">
    <g id="use7463" transform="matrix(4.16667,0,0,4.16667,-0.00345833,117.785)">
        <path id="path134" d="M1.266,-1.266L1.266,0L0.5,0L0.5,-5.328L1.266,-5.328L1.266,-2.063L2.609,-3.547L3.563,-3.547L2.125,-2.047L3.625,0L2.719,0L1.594,-1.594L1.266,-1.266Z" style="fill-rule:nonzero;"/>
    </g>
    <g id="use7467" transform="matrix(4.16667,0,0,4.16667,15.9654,117.785)">
        <path id="path137" d="M0.531,-3.219C0.758,-3.344 0.977,-3.438 1.188,-3.5C1.406,-3.563 1.645,-3.594 1.906,-3.594C2.102,-3.594 2.285,-3.57 2.453,-3.531C2.617,-3.488 2.758,-3.414 2.875,-3.313C3,-3.219 3.094,-3.082 3.156,-2.906C3.227,-2.738 3.266,-2.535 3.266,-2.297L3.266,0L2.641,0L2.563,-0.375L2.547,-0.375C2.398,-0.219 2.234,-0.102 2.047,-0.031C1.867,0.039 1.664,0.078 1.438,0.078C1.082,0.078 0.797,-0.016 0.578,-0.203C0.359,-0.398 0.25,-0.656 0.25,-0.969C0.25,-1.164 0.289,-1.332 0.375,-1.469C0.457,-1.613 0.57,-1.734 0.719,-1.828C0.863,-1.922 1.035,-1.988 1.234,-2.031C1.43,-2.082 1.648,-2.109 1.891,-2.109L2.484,-2.109L2.484,-2.391C2.484,-2.609 2.422,-2.758 2.297,-2.844C2.18,-2.938 2.02,-2.984 1.813,-2.984C1.688,-2.984 1.539,-2.961 1.375,-2.922C1.207,-2.879 1.02,-2.801 0.813,-2.688L0.531,-3.219ZM2.5,-1.609L2.031,-1.594C1.676,-1.582 1.426,-1.52 1.281,-1.406C1.133,-1.289 1.063,-1.156 1.063,-1C1.063,-0.906 1.078,-0.82 1.109,-0.75C1.141,-0.688 1.18,-0.633 1.234,-0.594C1.285,-0.563 1.348,-0.535 1.422,-0.516C1.492,-0.492 1.57,-0.484 1.656,-0.484C1.801,-0.484 1.953,-0.52 2.109,-0.594C2.266,-0.676 2.395,-0.789 2.5,-0.938L2.5,-1.609Z" style="fill-rule:nonzero;"/>
    </g>
    <g id="use7471" transform="matrix(4.16667,0,0,4.16667,32.2778,117.785)">
        <path id="path140" d="M0.484,0L0.484,-3.547L1.063,-3.547L1.172,-2.859C1.266,-3.066 1.406,-3.238 1.594,-3.375C1.781,-3.52 2.008,-3.594 2.281,-3.594C2.395,-3.594 2.492,-3.582 2.578,-3.563C2.672,-3.551 2.754,-3.523 2.828,-3.484L2.688,-2.844C2.625,-2.875 2.551,-2.898 2.469,-2.922C2.395,-2.941 2.313,-2.953 2.219,-2.953C1.938,-2.953 1.703,-2.859 1.516,-2.672C1.336,-2.484 1.25,-2.195 1.25,-1.813L1.25,0L0.484,0Z" style="fill-rule:nonzero;"/>
    </g>
    <g id="use7475" transform="matrix(4.16667,0,0,4.16667,44.9966,117.785)">
        <rect id="path143" x="0.516" y="-5.328" width="0.766" height="5.328" style="fill-rule:nonzero;"/>
    </g>
    <g id="use7479" transform="matrix(4.16667,0,0,4.16667,53.2778,117.785)">
        <path id="path146" d="M2.531,-2.813C2.363,-2.895 2.211,-2.953 2.078,-2.984C1.941,-3.016 1.805,-3.031 1.672,-3.031C1.461,-3.031 1.301,-2.988 1.188,-2.906C1.082,-2.832 1.031,-2.734 1.031,-2.609C1.031,-2.504 1.07,-2.414 1.156,-2.344C1.238,-2.27 1.406,-2.195 1.656,-2.125L1.875,-2.063C2.195,-1.957 2.441,-1.828 2.609,-1.672C2.773,-1.516 2.859,-1.301 2.859,-1.031C2.859,-0.695 2.734,-0.426 2.484,-0.219C2.234,-0.02 1.895,0.078 1.469,0.078C1.227,0.078 1.004,0.055 0.797,0.016C0.598,-0.023 0.422,-0.086 0.266,-0.172L0.438,-0.75C0.582,-0.676 0.738,-0.617 0.906,-0.578C1.07,-0.535 1.242,-0.516 1.422,-0.516C1.629,-0.516 1.789,-0.551 1.906,-0.625C2.031,-0.695 2.094,-0.813 2.094,-0.969C2.094,-1.113 2.039,-1.219 1.938,-1.281C1.832,-1.344 1.664,-1.41 1.438,-1.484L1.203,-1.547C0.891,-1.648 0.656,-1.781 0.5,-1.938C0.352,-2.102 0.281,-2.316 0.281,-2.578C0.281,-2.734 0.313,-2.875 0.375,-3C0.438,-3.125 0.523,-3.227 0.641,-3.313C0.754,-3.406 0.895,-3.473 1.063,-3.516C1.227,-3.566 1.406,-3.594 1.594,-3.594C1.781,-3.594 1.969,-3.578 2.156,-3.547C2.352,-3.516 2.535,-3.457 2.703,-3.375L2.531,-2.813Z" style="fill-rule:nonzero;"/>
    </g>
    <g id="use7483" transform="matrix(4.16667,0,0,4.16667,67.1528,117.785)">
        <path id="path149" d="M2.438,-2.969L1.438,-2.969L1.438,-1.063C1.438,-0.883 1.477,-0.766 1.563,-0.703C1.645,-0.641 1.754,-0.609 1.891,-0.609C1.992,-0.609 2.098,-0.617 2.203,-0.641C2.316,-0.672 2.414,-0.703 2.5,-0.734L2.625,-0.156C2.52,-0.113 2.391,-0.078 2.234,-0.047C2.078,-0.016 1.91,0 1.734,0C1.359,0 1.086,-0.078 0.922,-0.234C0.754,-0.391 0.672,-0.625 0.672,-0.938L0.672,-2.969L0.125,-2.969L0.125,-3.547L0.672,-3.547L0.672,-4.656L1.438,-4.656L1.438,-3.547L2.438,-3.547L2.438,-2.969Z" style="fill-rule:nonzero;"/>
    </g>
    <g id="use7487" transform="matrix(4.16667,0,0,4.16667,79.6528,117.785)">
        <path id="path1371" serif:id="path137" d="M0.531,-3.219C0.758,-3.344 0.977,-3.438 1.188,-3.5C1.406,-3.563 1.645,-3.594 1.906,-3.594C2.102,-3.594 2.285,-3.57 2.453,-3.531C2.617,-3.488 2.758,-3.414 2.875,-3.313C3,-3.219 3.094,-3.082 3.156,-2.906C3.227,-2.738 3.266,-2.535 3.266,-2.297L3.266,0L2.641,0L2.563,-0.375L2.547,-0.375C2.398,-0.219 2.234,-0.102 2.047,-0.031C1.867,0.039 1.664,0.078 1.438,0.078C1.082,0.078 0.797,-0.016 0.578,-0.203C0.359,-0.398 0.25,-0.656 0.25,-0.969C0.25,-1.164 0.289,-1.332 0.375,-1.469C0.457,-1.613 0.57,-1.734 0.719,-1.828C0.863,-1.922 1.035,-1.988 1.234,-2.031C1.43,-2.082 1.648,-2.109 1.891,-2.109L2.484,-2.109L2.484,-2.391C2.484,-2.609 2.422,-2.758 2.297,-2.844C2.18,-2.938 2.02,-2.984 1.813,-2.984C1.688,-2.984 1.539,-2.961 1.375,-2.922C1.207,-2.879 1.02,-2.801 0.813,-2.688L0.531,-3.219ZM2.5,-1.609L2.031,-1.594C1.676,-1.582 1.426,-1.52 1.281,-1.406C1.133,-1.289 1.063,-1.156 1.063,-1C1.063,-0.906 1.078,-0.82 1.109,-0.75C1.141,-0.688 1.18,-0.633 1.234,-0.594C1.285,-0.563 1.348,-0.535 1.422,-0.516C1.492,-0.492 1.57,-0.484 1.656,-0.484C1.801,-0.484 1.953,-0.52 2.109,-0.594C2.266,-0.676 2.395,-0.789 2.5,-0.938L2.5,-1.609Z" style="fill-rule:nonzero;"/>
    </g>
    <g id="use7491" transform="matrix(4.16667,0,0,4.16667,95.809,117.785)">
        <path id="path1491" serif:id="path149" d="M2.438,-2.969L1.438,-2.969L1.438,-1.063C1.438,-0.883 1.477,-0.766 1.563,-0.703C1.645,-0.641 1.754,-0.609 1.891,-0.609C1.992,-0.609 2.098,-0.617 2.203,-0.641C2.316,-0.672 2.414,-0.703 2.5,-0.734L2.625,-0.156C2.52,-0.113 2.391,-0.078 2.234,-0.047C2.078,-0.016 1.91,0 1.734,0C1.359,0 1.086,-0.078 0.922,-0.234C0.754,-0.391 0.672,-0.625 0.672,-0.938L0.672,-2.969L0.125,-2.969L0.125,-3.547L0.672,-3.547L0.672,-4.656L1.438,-4.656L1.438,-3.547L2.438,-3.547L2.438,-2.969Z" style="fill-rule:nonzero;"/>
    </g>
    <g id="use7493" transform="matrix(4.16667,0,0,4.16667,107.934,117.785)">
        <path id="path152" d="M0.563,0L0.563,-3.547L1.344,-3.547L1.344,0L0.563,0ZM0.953,-4.422C0.816,-4.422 0.707,-4.461 0.625,-4.547C0.551,-4.629 0.516,-4.734 0.516,-4.859C0.516,-4.984 0.551,-5.082 0.625,-5.156C0.707,-5.238 0.816,-5.281 0.953,-5.281C1.086,-5.281 1.195,-5.238 1.281,-5.156C1.363,-5.082 1.406,-4.984 1.406,-4.859C1.406,-4.723 1.363,-4.613 1.281,-4.531C1.195,-4.457 1.086,-4.422 0.953,-4.422Z" style="fill-rule:nonzero;"/>
    </g>
    <g id="use7495" transform="matrix(4.16667,0,0,4.16667,116.497,117.785)">
        <path id="path1341" serif:id="path134" d="M1.266,-1.266L1.266,0L0.5,0L0.5,-5.328L1.266,-5.328L1.266,-2.063L2.609,-3.547L3.563,-3.547L2.125,-2.047L3.625,0L2.719,0L1.594,-1.594L1.266,-1.266Z" style="fill-rule:nonzero;"/>
    </g>
    <g id="use7501" transform="matrix(4.16667,0,0,4.16667,139.403,117.785)">
        <path id="path158" d="M2.703,-4.797C3.254,-4.797 3.711,-4.703 4.078,-4.516L3.906,-3.938C3.719,-4.02 3.531,-4.078 3.344,-4.109C3.164,-4.148 2.984,-4.172 2.797,-4.172C2.578,-4.172 2.367,-4.141 2.172,-4.078C1.984,-4.016 1.816,-3.91 1.672,-3.766C1.523,-3.617 1.406,-3.43 1.313,-3.203C1.227,-2.973 1.188,-2.691 1.188,-2.359C1.188,-1.773 1.316,-1.328 1.578,-1.016C1.848,-0.711 2.223,-0.563 2.703,-0.563C2.879,-0.563 3.023,-0.566 3.141,-0.578C3.266,-0.598 3.383,-0.629 3.5,-0.672L3.5,-1.906L2.641,-1.906L2.641,-2.531L4.25,-2.531L4.25,-0.203C4.051,-0.129 3.828,-0.063 3.578,0C3.328,0.051 3.035,0.078 2.703,0.078C2.367,0.078 2.055,0.023 1.766,-0.078C1.473,-0.18 1.219,-0.336 1,-0.547C0.789,-0.754 0.625,-1.008 0.5,-1.313C0.383,-1.613 0.328,-1.961 0.328,-2.359C0.328,-2.754 0.383,-3.102 0.5,-3.406C0.625,-3.707 0.789,-3.961 1,-4.172C1.207,-4.379 1.457,-4.535 1.75,-4.641C2.039,-4.742 2.359,-4.797 2.703,-4.797Z" style="fill-rule:nonzero;"/>
    </g>
    <g id="use7505" transform="matrix(4.16667,0,0,4.16667,159.903,117.785)">
        <path id="path161" d="M1.266,0L0.484,0L0.484,-3.547L1.094,-3.547L1.188,-3.063C1.352,-3.227 1.531,-3.359 1.719,-3.453C1.914,-3.547 2.141,-3.594 2.391,-3.594C2.648,-3.594 2.859,-3.539 3.016,-3.438C3.18,-3.344 3.305,-3.207 3.391,-3.031C3.555,-3.207 3.742,-3.344 3.953,-3.438C4.16,-3.539 4.391,-3.594 4.641,-3.594C5.016,-3.594 5.297,-3.492 5.484,-3.297C5.672,-3.098 5.766,-2.813 5.766,-2.438L5.766,0L4.984,0L4.984,-2.313C4.984,-2.531 4.938,-2.695 4.844,-2.813C4.75,-2.926 4.598,-2.984 4.391,-2.984C4.078,-2.984 3.785,-2.844 3.516,-2.563L3.516,0L2.734,0L2.734,-2.313C2.734,-2.531 2.688,-2.695 2.594,-2.813C2.5,-2.926 2.348,-2.984 2.141,-2.984C1.828,-2.984 1.535,-2.832 1.266,-2.531L1.266,0Z" style="fill-rule:nonzero;"/>
    </g>
    <g id="use7509" transform="matrix(4.16667,0,0,4.16667,186.653,117.785)">
        <path id="path164" d="M3.844,-1.766C3.844,-1.484 3.797,-1.227 3.703,-1C3.617,-0.77 3.504,-0.578 3.359,-0.422C3.211,-0.266 3.039,-0.141 2.844,-0.047C2.645,0.035 2.438,0.078 2.219,0.078C1.988,0.078 1.785,0.047 1.609,-0.016C1.441,-0.086 1.285,-0.191 1.141,-0.328L1.125,-0.328L1.063,0L0.5,0L0.5,-5.328L1.266,-5.328L1.266,-3.156C1.41,-3.301 1.578,-3.41 1.766,-3.484C1.953,-3.555 2.145,-3.594 2.344,-3.594C2.801,-3.594 3.164,-3.43 3.438,-3.109C3.707,-2.785 3.844,-2.336 3.844,-1.766ZM3.031,-1.75C3.031,-2.133 2.953,-2.438 2.797,-2.656C2.641,-2.875 2.414,-2.984 2.125,-2.984C1.957,-2.984 1.801,-2.941 1.656,-2.859C1.508,-2.785 1.379,-2.68 1.266,-2.547L1.266,-0.859C1.359,-0.754 1.461,-0.672 1.578,-0.609C1.703,-0.547 1.844,-0.516 2,-0.516C2.133,-0.516 2.266,-0.535 2.391,-0.578C2.516,-0.629 2.625,-0.703 2.719,-0.797C2.813,-0.898 2.883,-1.031 2.938,-1.188C3,-1.352 3.031,-1.539 3.031,-1.75Z" style="fill-rule:nonzero;"/>
    </g>
    <g id="use7513" transform="matrix(4.16667,0,0,4.16667,204.747,117.785)">
        <path id="path167" d="M0.563,0L0.563,-4.719L1.375,-4.719L1.375,-2.781L3.469,-2.781L3.469,-4.719L4.266,-4.719L4.266,0L3.469,0L3.469,-2.109L1.375,-2.109L1.375,0L0.563,0Z" style="fill-rule:nonzero;"/>
    </g>
    <g id="path8105" transform="matrix(4.16667,0,0,4.16667,-1822.44,-2840.76)">
        <path d="M437.387,686.609L470.691,686.609" style="fill:none;fill-rule:nonzero;stroke:black;stroke-width:12.5px;"/>
    </g>
</svg>
